<svg version="1.1" id="Layer_1" xmlns="http://www.w3.org/2000/svg" xmlns:xlink="http://www.w3.org/1999/xlink" x="0px" y="0px"
	 width="100%" viewBox="0 0 406 406" enable-background="new 0 0 406 406" xml:space="preserve">
<path fill="#FEFFFE" opacity="1.000000" stroke="none" 
	d="
M276.000000,407.000000 
	C184.028168,407.000000 92.556328,407.000000 1.042245,407.000000 
	C1.042245,271.736511 1.042245,136.472977 1.042245,1.104728 
	C136.221786,1.104728 271.443695,1.104728 406.832794,1.104728 
	C406.832794,136.333160 406.832794,271.666565 406.832794,407.000000 
	C363.473022,407.000000 319.986511,407.000000 276.000000,407.000000 
M132.005249,126.155930 
	C163.145660,126.181305 194.286133,126.183174 225.426392,126.266472 
	C228.739471,126.275330 232.097488,126.496269 235.356491,127.066025 
	C266.720093,132.549179 282.089050,167.411667 264.284821,192.979813 
	C256.145599,204.668335 244.606674,210.558304 230.310303,210.848541 
	C222.824539,211.000519 214.485016,209.065659 208.087616,211.763824 
	C201.519379,214.534042 196.722397,221.679108 191.378418,227.133163 
	C184.433838,234.220795 177.714417,241.529068 170.841797,248.801941 
	C198.339783,277.372803 226.254745,306.398621 254.239273,335.357239 
	C255.159256,336.309265 256.785400,337.087006 258.084076,337.089569 
	C281.723175,337.136536 305.362549,337.052032 329.629852,337.181305 
	C330.243652,336.959015 330.857422,336.736694 331.471222,336.514404 
	C330.966034,336.016510 330.460876,335.518585 329.719666,334.396088 
	C306.992065,310.855865 284.264465,287.315643 261.266357,263.495239 
	C263.510956,262.548187 265.028076,261.876007 266.568665,261.262726 
	C308.809540,244.447510 333.586884,204.967102 330.025085,159.996902 
	C326.408142,114.330490 289.697693,77.270119 245.314468,71.243195 
	C227.283997,68.794777 208.746216,69.797813 190.437683,69.741211 
	C152.619629,69.624290 114.800514,69.850197 76.073570,69.772728 
	C75.611053,71.376427 74.758560,72.977242 74.746635,74.584282 
	C74.633179,89.885048 74.653603,105.186890 74.662041,120.488396 
	C74.663017,122.259018 74.824867,124.029549 74.922218,126.004738 
	C93.932846,126.004738 112.511223,126.004738 132.005249,126.155930 
M186.500046,156.701294 
	C149.269257,156.701294 112.038483,156.701294 74.800781,156.701294 
	C74.800781,166.619858 74.800781,175.688385 74.800781,185.472900 
	C92.719765,185.472900 110.194405,185.472900 128.639633,185.472900 
	C127.168678,187.073135 126.539078,187.829407 125.837135,188.511215 
	C109.947495,203.945175 94.094345,219.417297 78.109154,234.751740 
	C75.512115,237.243057 74.317230,239.766693 74.333786,243.443619 
	C74.465836,272.768738 74.397629,302.094757 74.390892,331.420502 
	C74.390480,333.204956 74.390839,334.989410 74.390839,336.879089 
	C92.773918,336.879089 110.517731,336.879089 128.785248,336.879089 
	C128.785248,334.757233 128.785202,332.967377 128.785248,331.177521 
	C128.785858,307.516937 128.695419,283.855499 128.923294,260.197113 
	C128.946945,257.743866 130.244537,254.682571 131.991989,252.958481 
	C162.348434,223.008194 192.870270,193.225555 223.346329,163.396423 
	C225.277130,161.506607 227.128662,159.535797 229.896729,156.702179 
	C214.772507,156.702179 201.136276,156.702179 186.500046,156.701294 
z"/>
<path fill="#414445" opacity="1.000000" stroke="none" 
	d="
M76.981834,69.935089 
	C114.800514,69.850197 152.619629,69.624290 190.437683,69.741211 
	C208.746216,69.797813 227.283997,68.794777 245.314468,71.243195 
	C289.697693,77.270119 326.408142,114.330490 330.025085,159.996902 
	C333.586884,204.967102 308.809540,244.447510 266.568665,261.262726 
	C265.028076,261.876007 263.510956,262.548187 261.266357,263.495239 
	C284.264465,287.315643 306.992065,310.855865 329.601349,334.877777 
	C329.322632,335.904816 329.162231,336.450134 329.001862,336.995483 
	C305.362549,337.052032 281.723175,337.136536 258.084076,337.089569 
	C256.785400,337.087006 255.159256,336.309265 254.239273,335.357239 
	C226.254745,306.398621 198.339783,277.372803 170.841797,248.801941 
	C177.714417,241.529068 184.433838,234.220795 191.378418,227.133163 
	C196.722397,221.679108 201.519379,214.534042 208.087616,211.763824 
	C214.485016,209.065659 222.824539,211.000519 230.310303,210.848541 
	C244.606674,210.558304 256.145599,204.668335 264.284821,192.979813 
	C282.089050,167.411667 266.720093,132.549179 235.356491,127.066025 
	C232.097488,126.496269 228.739471,126.275330 225.426392,126.266472 
	C194.286133,126.183174 163.145660,126.181305 131.371475,125.791611 
	C124.548584,119.140594 118.310707,112.901001 112.180786,106.557098 
	C100.415436,94.381027 88.711342,82.145790 76.981834,69.935089 
z"/>
<path fill="#47B36C" opacity="1.000000" stroke="none" 
	d="
M187.000061,156.701736 
	C201.136276,156.702179 214.772507,156.702179 229.896729,156.702179 
	C227.128662,159.535797 225.277130,161.506607 223.346329,163.396423 
	C192.870270,193.225555 162.348434,223.008194 131.991989,252.958481 
	C130.244537,254.682571 128.946945,257.743866 128.923294,260.197113 
	C128.695419,283.855499 128.785858,307.516937 128.785248,331.177521 
	C128.785202,332.967377 128.785248,334.757233 128.785248,336.879089 
	C110.517731,336.879089 92.773918,336.879089 74.390839,336.879089 
	C74.390839,334.989410 74.390480,333.204956 74.390892,331.420502 
	C74.397629,302.094757 74.465836,272.768738 74.333786,243.443619 
	C74.317230,239.766693 75.512115,237.243057 78.109154,234.751740 
	C94.094345,219.417297 109.947495,203.945175 125.837135,188.511215 
	C126.539078,187.829407 127.168678,187.073135 128.639633,185.472900 
	C110.194405,185.472900 92.719765,185.472900 74.800781,185.472900 
	C74.800781,175.688385 74.800781,166.619858 74.800781,156.701294 
	C112.038483,156.701294 149.269257,156.701294 187.000061,156.701736 
z"/>
<path fill="#47B36C" opacity="1.000000" stroke="none" 
	d="
M76.527702,69.853912 
	C88.711342,82.145790 100.415436,94.381027 112.180786,106.557098 
	C118.310707,112.901001 124.548584,119.140594 130.913651,125.716019 
	C112.511223,126.004738 93.932846,126.004738 74.922218,126.004738 
	C74.824867,124.029549 74.663017,122.259018 74.662041,120.488396 
	C74.653603,105.186890 74.633179,89.885048 74.746635,74.584282 
	C74.758560,72.977242 75.611053,71.376427 76.527702,69.853912 
z"/>
<path fill="#38383A" opacity="1.000000" stroke="none" 
	d="
M329.315857,337.088379 
	C329.162231,336.450134 329.322632,335.904816 329.719360,335.190063 
	C330.460876,335.518585 330.966034,336.016510 331.471222,336.514404 
	C330.857422,336.736694 330.243652,336.959015 329.315857,337.088379 
z"/>
</svg>