<svg version="1.1" id="Layer_1" xmlns="http://www.w3.org/2000/svg" xmlns:xlink="http://www.w3.org/1999/xlink" x="0px" y="0px"
	 width="100%" viewBox="0 0 406 406" enable-background="new 0 0 406 406" xml:space="preserve">
<path fill="#FEFFFE" opacity="1.000000" stroke="none" 
	d="
M275.000000,407.000000 
	C183.361389,407.000000 92.222786,407.000000 1.042091,407.000000 
	C1.042091,271.736389 1.042091,136.472778 1.042091,1.104575 
	C136.221893,1.104575 271.443878,1.104575 406.832947,1.104575 
	C406.832947,136.333160 406.832947,271.666565 406.832947,407.000000 
	C363.139496,407.000000 319.319733,407.000000 275.000000,407.000000 
M131.152969,126.088097 
	C162.814423,126.136787 194.475876,126.206383 226.137344,126.220070 
	C234.480682,126.223671 242.339279,128.052811 249.581604,132.197952 
	C264.895355,140.962799 272.501038,154.332413 271.555206,171.848831 
	C270.636108,188.869522 261.475159,200.674271 246.065872,207.688965 
	C236.748184,211.930618 226.773285,211.149704 217.012024,210.799423 
	C210.539673,210.567184 205.740784,212.172714 201.346619,217.115967 
	C191.646240,228.028564 181.439606,238.491165 171.163620,249.431061 
	C170.618866,248.453201 170.724228,248.786346 170.941391,249.011795 
	C198.674408,277.800568 226.404984,306.591736 254.203079,335.317566 
	C255.128189,336.273560 256.740234,337.084351 258.033905,337.087036 
	C281.689728,337.136353 305.345856,337.051575 329.629791,337.180878 
	C330.243408,336.958649 330.856995,336.736450 331.470612,336.514221 
	C330.965515,336.016388 330.460449,335.518555 329.719330,334.396149 
	C306.990814,310.855438 284.262299,287.314758 262.279724,264.546692 
	C272.432587,258.484100 282.887329,253.485382 291.933044,246.628006 
	C334.971497,214.001450 343.498260,153.280548 310.906494,110.464760 
	C289.988831,82.985268 261.606934,69.631683 227.025467,69.651680 
	C179.718933,69.679039 132.412399,69.730339 85.105881,69.788704 
	C82.114319,69.792397 79.122940,69.945625 75.228729,70.191971 
	C75.080826,71.663918 74.807892,73.135551 74.804276,74.607849 
	C74.766251,90.091286 74.763512,105.574844 74.776001,121.058342 
	C74.777290,122.658569 74.940033,124.258659 75.028412,125.868729 
	C93.726189,125.868729 111.999435,125.868729 131.152969,126.088097 
M150.229446,234.724152 
	C176.456436,209.052383 202.683426,183.380615 229.501999,157.129791 
	C177.388733,157.129791 126.233391,157.129791 75.010529,157.129791 
	C75.010529,166.557831 75.010529,175.633087 75.010529,185.384338 
	C92.919968,185.384338 110.528549,185.384338 129.295990,185.384338 
	C111.638657,202.520523 94.969093,218.779083 78.174812,234.907776 
	C75.706589,237.278168 74.650101,239.670105 74.665543,243.143967 
	C74.796623,272.630554 74.733215,302.118011 74.728180,331.605194 
	C74.727882,333.353363 74.728142,335.101532 74.728142,336.768005 
	C93.042572,336.768005 110.609268,336.768005 128.411667,336.768005 
	C128.411667,334.565369 128.411743,332.739258 128.411652,330.913147 
	C128.410645,307.923157 128.493500,284.932526 128.328110,261.943726 
	C128.299698,257.993896 129.206696,255.088440 132.226074,252.347885 
	C138.264908,246.866699 143.913315,240.955383 150.229446,234.724152 
z"/>
<path fill="#414445" opacity="1.000000" stroke="none" 
	d="
M76.131477,70.029282 
	C79.122940,69.945625 82.114319,69.792397 85.105881,69.788704 
	C132.412399,69.730339 179.718933,69.679039 227.025467,69.651680 
	C261.606934,69.631683 289.988831,82.985268 310.906494,110.464760 
	C343.498260,153.280548 334.971497,214.001450 291.933044,246.628006 
	C282.887329,253.485382 272.432587,258.484100 262.279724,264.546692 
	C284.262299,287.314758 306.990814,310.855438 329.601196,334.877930 
	C329.322662,335.904877 329.162292,336.450043 329.001892,336.995239 
	C305.345856,337.051575 281.689728,337.136353 258.033905,337.087036 
	C256.740234,337.084351 255.128189,336.273560 254.203079,335.317566 
	C226.404984,306.591736 198.674408,277.800568 170.941391,249.011795 
	C170.724228,248.786346 170.618866,248.453201 171.163620,249.431061 
	C181.439606,238.491165 191.646240,228.028564 201.346619,217.115967 
	C205.740784,212.172714 210.539673,210.567184 217.012024,210.799423 
	C226.773285,211.149704 236.748184,211.930618 246.065872,207.688965 
	C261.475159,200.674271 270.636108,188.869522 271.555206,171.848831 
	C272.501038,154.332413 264.895355,140.962799 249.581604,132.197952 
	C242.339279,128.052811 234.480682,126.223671 226.137344,126.220070 
	C194.475876,126.206383 162.814423,126.136787 130.541763,125.678192 
	C128.738342,123.917915 127.604042,122.510818 126.345154,121.225761 
	C109.617462,104.150269 92.872292,87.091911 76.131477,70.029282 
z"/>
<path fill="#0072F5" opacity="1.000000" stroke="none" 
	d="
M149.976196,234.972916 
	C143.913315,240.955383 138.264908,246.866699 132.226074,252.347885 
	C129.206696,255.088440 128.299698,257.993896 128.328110,261.943726 
	C128.493500,284.932526 128.410645,307.923157 128.411652,330.913147 
	C128.411743,332.739258 128.411667,334.565369 128.411667,336.768005 
	C110.609268,336.768005 93.042572,336.768005 74.728142,336.768005 
	C74.728142,335.101532 74.727882,333.353363 74.728180,331.605194 
	C74.733215,302.118011 74.796623,272.630554 74.665543,243.143967 
	C74.650101,239.670105 75.706589,237.278168 78.174812,234.907776 
	C94.969093,218.779083 111.638657,202.520523 129.295990,185.384338 
	C110.528549,185.384338 92.919968,185.384338 75.010529,185.384338 
	C75.010529,175.633087 75.010529,166.557831 75.010529,157.129791 
	C126.233391,157.129791 177.388733,157.129791 229.501999,157.129791 
	C202.683426,183.380615 176.456436,209.052383 149.976196,234.972916 
z"/>
<path fill="#0072F5" opacity="1.000000" stroke="none" 
	d="
M75.680099,70.110626 
	C92.872292,87.091911 109.617462,104.150269 126.345154,121.225761 
	C127.604042,122.510818 128.738342,123.917915 130.101624,125.568504 
	C111.999435,125.868729 93.726189,125.868729 75.028412,125.868729 
	C74.940033,124.258659 74.777290,122.658569 74.776001,121.058342 
	C74.763512,105.574844 74.766251,90.091286 74.804276,74.607849 
	C74.807892,73.135551 75.080826,71.663918 75.680099,70.110626 
z"/>
<path fill="#38383A" opacity="1.000000" stroke="none" 
	d="
M329.315857,337.088074 
	C329.162292,336.450043 329.322662,335.904877 329.719238,335.190186 
	C330.460449,335.518555 330.965515,336.016388 331.470612,336.514221 
	C330.856995,336.736450 330.243408,336.958649 329.315857,337.088074 
z"/>
</svg>